name analog
datacolumns 19
datarows 55
range 0.447 0.47400000000000003
endheader
time	ground_force_vx	ground_force_vy	ground_force_vz	ground_force_px	ground_force_py	ground_force_pz	l_ground_force_vx	l_ground_force_vy	l_ground_force_vz	l_ground_force_px	l_ground_force_py	l_ground_force_pz	ground_torque_x	ground_torque_y	ground_torque_z	l_ground_torque_x	l_ground_torque_y	l_ground_torque_z
0.447	-0.0	-0.0	-0.0	-10.733101844787598	25.853498458862305	-389.5574951171875	12.638572692871094	-25.25459671020508	-397.170654296875	-0.0	-0.0	-0.0	-0.0	-0.0	-0.0	103376.34375	11038.0537109375	-1777.2684326171875
0.4475	-0.0	-0.0	-0.0	-11.27420425415039	25.210033416748047	-391.699951171875	12.25593090057373	-25.67404556274414	-396.2103576660156	-0.0	-0.0	-0.0	-0.0	-0.0	-0.0	103642.234375	10851.2119140625	-1955.6314697265625
0.448	-0.0	-0.0	-0.0	-11.103667259216309	24.69688606262207	-392.1394348144531	12.181007385253906	-25.687856674194336	-397.8468322753906	-0.0	-0.0	-0.0	-0.0	-0.0	-0.0	103685.265625	10780.234375	-1971.49365234375
0.4485	-0.0	-0.0	-0.0	-11.15131378173828	25.031837463378903	-392.0547180175781	11.621112823486328	-26.38075065612793	-400.2904357910156	-0.0	-0.0	-0.0	-0.0	-0.0	-0.0	104734.6953125	10575.37890625	-2109.189453125
0.449	-0.0	-0.0	-0.0	-10.87714672088623	24.65505790710449	-391.7856750488281	11.321228981018066	-26.714187622070312	-401.3374633789063	-0.0	-0.0	-0.0	-0.0	-0.0	-0.0	104846.0703125	10464.8505859375	-2054.741455078125
0.4495	-0.0	-0.0	-0.0	-11.466893196105955	24.94944953918457	-392.5462951660156	11.218704223632812	-26.816089630126957	-402.5178527832031	-0.0	-0.0	-0.0	-0.0	-0.0	-0.0	105350.0078125	10329.998046875	-2118.738037109375
0.45	-0.0	-0.0	-0.0	-11.473811149597168	24.68912124633789	-392.192626953125	11.430013656616213	-27.046669006347656	-404.20989990234375	-0.0	-0.0	-0.0	-0.0	-0.0	-0.0	105516.3515625	10225.7431640625	-2139.125244140625
0.4505	-0.0	-0.0	-0.0	-11.432623863220217	24.853715896606445	-392.9809875488281	11.34134006500244	-26.713890075683597	-404.3983154296875	-0.0	-0.0	-0.0	-0.0	-0.0	-0.0	105548.8515625	10135.857421875	-2020.435302734375
0.451	-0.0	-0.0	-0.0	-11.4598970413208	24.634567260742188	-392.9560546875	11.150334358215332	-27.20307922363281	-405.2579040527344	-0.0	-0.0	-0.0	-0.0	-0.0	-0.0	105617.1640625	9901.7880859375	-2164.4541015625
0.4515	-0.0	-0.0	-0.0	-11.659351348876951	24.332599639892575	-390.9163208007813	11.17755889892578	-27.060697555541992	-403.5658264160156	-0.0	-0.0	-0.0	-0.0	-0.0	-0.0	105684.25	9688.0029296875	-2098.1025390625
0.452	-0.0	-0.0	-0.0	-12.002693176269531	24.78600311279297	-391.3233642578125	11.613624572753906	-26.836315155029297	-403.6725463867188	-0.0	-0.0	-0.0	-0.0	-0.0	-0.0	105504.125	9766.3232421875	-2100.1767578125
0.4525	-0.0	-0.0	-0.0	-11.321758270263672	24.25699615478516	-389.6867065429688	12.392507553100586	-26.79602432250977	-403.8318176269531	-0.0	-0.0	-0.0	-0.0	-0.0	-0.0	105669.859375	9464.3408203125	-1818.466552734375
0.453	-0.0	-0.0	-0.0	-10.661935806274414	24.500158309936523	-391.023681640625	12.56210708618164	-26.65973663330078	-403.08001708984375	-0.0	-0.0	-0.0	-0.0	-0.0	-0.0	105859.859375	9182.6484375	-1736.3709716796875
0.4535	-0.0	-0.0	-0.0	-10.759148597717283	23.72214698791504	-392.1494140625	12.854958534240724	-26.45638084411621	-403.42877197265625	-0.0	-0.0	-0.0	-0.0	-0.0	-0.0	105980.9375	9029.705078125	-1597.65380859375
0.454	-0.0	-0.0	-0.0	-10.567142486572266	23.93581199645996	-390.2106628417969	13.70998191833496	-26.48316764831543	-403.9684448242188	-0.0	-0.0	-0.0	-0.0	-0.0	-0.0	105632.796875	8821.5224609375	-1336.337646484375
0.4545	-0.0	-0.0	-0.0	-10.794471740722656	24.06058120727539	-388.957275390625	14.078277587890623	-26.45657539367676	-403.86322021484375	-0.0	-0.0	-0.0	-0.0	-0.0	-0.0	105397.09375	8586.083984375	-1153.60498046875
0.455	-0.0	-0.0	-0.0	-10.656155586242676	23.82452964782715	-389.2572021484375	14.433195114135742	-26.11667251586914	-401.87353515625	-0.0	-0.0	-0.0	-0.0	-0.0	-0.0	105116.25	8570.1630859375	-1123.6021728515625
0.4555	-0.0	-0.0	-0.0	-11.26718521118164	23.864410400390625	-390.6170043945313	14.623985290527344	-25.8253116607666	-400.738525390625	-0.0	-0.0	-0.0	-0.0	-0.0	-0.0	105247.7109375	8356.4775390625	-1123.392578125
0.456	-0.0	-0.0	-0.0	-11.343037605285645	24.015949249267575	-391.4659118652344	14.943208694458008	-25.763517379760746	-400.5291442871094	-0.0	-0.0	-0.0	-0.0	-0.0	-0.0	105036.1875	8234.35546875	-928.8092651367188
0.4565	-0.0	-0.0	-0.0	-11.544307708740234	24.01583671569824	-392.02972412109375	15.12051773071289	-25.32585334777832	-400.1124877929688	-0.0	-0.0	-0.0	-0.0	-0.0	-0.0	104925.953125	7976.5693359375	-953.7750244140624
0.457	-0.0	-0.0	-0.0	-11.240524291992188	24.19398498535156	-391.6375427246094	15.159977912902832	-25.374589920043945	-400.0758361816406	-0.0	-0.0	-0.0	-0.0	-0.0	-0.0	104591.4453125	7871.046875	-843.89990234375
0.4575	-0.0	-0.0	-0.0	-11.521354675292969	23.939695358276367	-390.8782653808594	15.324069023132324	-25.786518096923828	-397.3345336914063	-0.0	-0.0	-0.0	-0.0	-0.0	-0.0	104487.390625	7760.8134765625	-848.251953125
0.458	-0.0	-0.0	-0.0	-12.423666000366213	23.91033172607422	-392.5392456054688	15.232004165649414	-25.475849151611328	-397.5411682128906	-0.0	-0.0	-0.0	-0.0	-0.0	-0.0	104423.8984375	7574.875	-983.3291015625
0.4585	-0.0	-0.0	-0.0	-12.234963417053224	23.745370864868164	-391.5206909179688	15.5374755859375	-25.53799819946289	-397.4776611328125	-0.0	-0.0	-0.0	-0.0	-0.0	-0.0	103862.3359375	7632.7578125	-927.179931640625
0.459	-0.0	-0.0	-0.0	-12.185023307800291	23.63264274597168	-390.8146362304688	15.70180892944336	-25.1353816986084	-397.375244140625	-0.0	-0.0	-0.0	-0.0	-0.0	-0.0	103896.2109375	7309.9501953125	-990.690185546875
0.4595	-0.0	-0.0	-0.0	-12.985551834106444	23.51737594604492	-391.9692687988281	15.271280288696287	-25.636768341064453	-395.38372802734375	-0.0	-0.0	-0.0	-0.0	-0.0	-0.0	103864.2734375	7186.3759765625	-966.6781616210938
0.46	-0.0	-0.0	-0.0	-12.8463134765625	23.162843704223636	-393.0377197265625	15.258255004882812	-25.662817001342773	-394.9416198730469	-0.0	-0.0	-0.0	-0.0	-0.0	-0.0	103669.0703125	7052.11572265625	-1012.192626953125
0.4605	-0.0	-0.0	-0.0	-12.591669082641602	23.45257568359375	-391.0730285644531	15.2472562789917	-25.425695419311523	-395.7850036621094	-0.0	-0.0	-0.0	-0.0	-0.0	-0.0	103646.8203125	6760.86083984375	-1025.8466796875
0.461	-0.0	-0.0	-0.0	-12.439132690429688	23.54188346862793	-390.2638549804688	15.35814094543457	-25.639020919799805	-396.4328002929688	-0.0	-0.0	-0.0	-0.0	-0.0	-0.0	103715.40625	6725.93310546875	-1139.523681640625
0.4615	-0.0	-0.0	-0.0	-12.311050415039062	23.31344223022461	-390.9190673828125	15.459961891174316	-25.701610565185547	-394.1921997070313	-0.0	-0.0	-0.0	-0.0	-0.0	-0.0	103490.3984375	6729.97119140625	-1063.4384765625
0.462	-0.0	-0.0	-0.0	-12.591564178466797	23.529464721679688	-390.0598449707031	15.271102905273438	-25.839879989624023	-392.4464111328125	-0.0	-0.0	-0.0	-0.0	-0.0	-0.0	103091.1640625	6694.73486328125	-1220.1116943359375
0.4625	-0.0	-0.0	-0.0	-12.630097389221191	23.6701602935791	-388.7014770507813	15.06801414489746	-25.81545829772949	-392.5473327636719	-0.0	-0.0	-0.0	-0.0	-0.0	-0.0	103071.625	6500.62548828125	-1059.45947265625
0.463	-0.0	-0.0	-0.0	-12.731972694396973	23.1226863861084	-388.5466918945313	14.992122650146484	-26.117006301879883	-393.0440979003906	-0.0	-0.0	-0.0	-0.0	-0.0	-0.0	103126.0390625	6181.09912109375	-1127.4791259765625
0.4635	-0.0	-0.0	-0.0	-13.190377235412598	22.601058959960938	-387.9930114746094	15.283743858337402	-25.852876663208008	-392.0972900390625	-0.0	-0.0	-0.0	-0.0	-0.0	-0.0	103101.65625	6263.4638671875	-1033.938232421875
0.464	-0.0	-0.0	-0.0	-13.139445304870604	22.919252395629883	-388.2962036132813	15.321837425231934	-25.903270721435547	-392.99456787109375	-0.0	-0.0	-0.0	-0.0	-0.0	-0.0	103528.9921875	5941.5263671875	-1033.9239501953125
0.4645	-0.0	-0.0	-0.0	-13.101009368896484	22.15514373779297	-387.8922119140625	15.410318374633787	-25.90345764160156	-392.69580078125	-0.0	-0.0	-0.0	-0.0	-0.0	-0.0	103293.1953125	5921.4248046875	-991.4920043945312
0.465	-0.0	-0.0	-0.0	-12.795126914978027	22.677112579345703	-387.8919372558594	15.52438735961914	-25.36091041564941	-393.3943786621094	-0.0	-0.0	-0.0	-0.0	-0.0	-0.0	103537.0234375	5911.42822265625	-974.3140258789062
0.4655	-0.0	-0.0	-0.0	-13.089336395263672	22.49876594543457	-388.9011840820313	16.208431243896484	-25.916757583618164	-391.54791259765625	-0.0	-0.0	-0.0	-0.0	-0.0	-0.0	103754.9921875	5433.34326171875	-889.1944580078125
0.466	-0.0	-0.0	-0.0	-13.406794548034668	22.33393859863281	-387.3884887695313	16.538612365722656	-24.995037078857425	-391.646484375	-0.0	-0.0	-0.0	-0.0	-0.0	-0.0	103685.2421875	5343.47900390625	-744.8248901367188
0.4665	-0.0	-0.0	-0.0	-13.89169692993164	22.398061752319336	-388.2443237304688	16.627473831176758	-24.83087730407715	-394.9928894042969	-0.0	-0.0	-0.0	-0.0	-0.0	-0.0	103725.8125	5199.935546875	-655.4760131835938
0.467	-0.0	-0.0	-0.0	-13.54745101928711	21.924694061279297	-388.144775390625	16.081680297851562	-25.070899963378903	-394.2950744628906	-0.0	-0.0	-0.0	-0.0	-0.0	-0.0	103766.5	4969.72998046875	-749.0852661132812
0.4675	-0.0	-0.0	-0.0	-13.572505950927734	21.799455642700195	-388.2438049316406	15.879230499267578	-25.171680450439453	-393.5921020507813	-0.0	-0.0	-0.0	-0.0	-0.0	-0.0	103866.359375	4917.37548828125	-745.0452270507812
0.468	-0.0	-0.0	-0.0	-13.599324226379396	21.97591781616211	-390.2638549804688	15.866791725158691	-24.717687606811523	-395.8889770507813	-0.0	-0.0	-0.0	-0.0	-0.0	-0.0	104569.09375	4876.5361328125	-813.108642578125
0.4685	-0.0	-0.0	-0.0	-12.960392951965332	21.91365623474121	-389.6067199707031	16.070945739746094	-24.781349182128903	-395.6376037597656	-0.0	-0.0	-0.0	-0.0	-0.0	-0.0	104590.890625	4329.36376953125	-736.4658203125
0.46900000000000003	-0.0	-0.0	-0.0	-13.728388786315918	21.606739044189453	-389.4592590332031	16.120616912841797	-24.60270500183105	-396.3358154296875	-0.0	-0.0	-0.0	-0.0	-0.0	-0.0	104816.3359375	4449.94970703125	-783.3006591796875
0.46950000000000003	-0.0	-0.0	-0.0	-13.356842041015623	21.198041915893555	-389.91064453125	16.308088302612305	-24.882152557373047	-397.1403198242188	-0.0	-0.0	-0.0	-0.0	-0.0	-0.0	104899.96875	4253.74560546875	-753.6118774414062
0.47000000000000003	-0.0	-0.0	-0.0	-13.243047714233398	21.71086311340332	-387.8891906738281	15.830037117004396	-24.541183471679688	-397.3932800292969	-0.0	-0.0	-0.0	-0.0	-0.0	-0.0	104899.625	4051.335693359375	-728.3512573242188
0.47050000000000003	-0.0	-0.0	-0.0	-13.69231414794922	21.901498794555664	-388.70501708984375	15.664998054504396	-24.465106964111328	-396.33538818359375	-0.0	-0.0	-0.0	-0.0	-0.0	-0.0	104969.8046875	4160.15234375	-643.5789794921875
0.47100000000000003	-0.0	-0.0	-0.0	-12.947787284851074	21.10829162597656	-387.5355224609375	15.637563705444336	-24.26410484313965	-394.7339172363281	-0.0	-0.0	-0.0	-0.0	-0.0	-0.0	105298.984375	3765.24267578125	-809.2725830078125
0.47150000000000003	-0.0	-0.0	-0.0	-12.769329071044922	21.274110794067383	-390.32659912109375	15.70180892944336	-24.577713012695312	-395.8287963867188	-0.0	-0.0	-0.0	-0.0	-0.0	-0.0	105077.875	3745.05712890625	-686.62255859375
0.47200000000000003	-0.0	-0.0	-0.0	-12.664066314697266	21.36692237854004	-388.7062683105469	15.863523483276367	-24.224369049072266	-397.1429748535156	-0.0	-0.0	-0.0	-0.0	-0.0	-0.0	105353.015625	3421.2939453125	-608.4947509765625
0.47250000000000003	-0.0	-0.0	-0.0	-12.566521644592283	21.22518539428711	-389.83056640625	16.411495208740234	-23.83477783203125	-395.7947082519531	-0.0	-0.0	-0.0	-0.0	-0.0	-0.0	105123.375	3218.56298828125	-545.8306884765625
0.47300000000000003	-0.0	-0.0	-0.0	-12.680014610290527	21.3385009765625	-389.3655395507813	16.770402908325195	-23.670211791992188	-395.3984375	-0.0	-0.0	-0.0	-0.0	-0.0	-0.0	105047.953125	3071.721435546875	-430.9586181640625
0.47350000000000003	-0.0	-0.0	-0.0	-13.142667770385742	20.79911994934082	-389.7669677734375	16.205699920654297	-23.25263214111328	-394.12799072265625	-0.0	-0.0	-0.0	-0.0	-0.0	-0.0	104714.96875	2757.208984375	-384.0484619140625
0.47400000000000003	-0.0	-0.0	-0.0	-13.333337783813477	20.77943229675293	-389.8439636230469	17.28657341003418	-23.204648971557617	-393.002685546875	-0.0	-0.0	-0.0	-0.0	-0.0	-0.0	104633.3046875	2951.715087890625	-331.9723815917969
